<?xml version="1.0" encoding="UTF-8"?>
<svg version="1.1" xmlns="http://www.w3.org/2000/svg" width="512" height="512">
<path d="M0 0 C5.2408382 3.90590771 8.93037572 8.75383518 11 15 C11.59572078 20.039561 11.56510232 25.06924673 11.54589844 30.13671875 C11.55464311 31.6649836 11.565132 33.1932393 11.57722473 34.72148132 C11.60499617 38.85111458 11.60849139 42.98044777 11.60750484 47.11016083 C11.61064159 51.43304604 11.63627563 55.75579763 11.65948486 60.07861328 C11.69999015 68.25589197 11.72037268 76.43309103 11.73345876 84.61045456 C11.74934737 93.92371435 11.78777082 103.23683897 11.82805204 112.55002022 C11.91037608 131.6999707 11.96451498 150.84990831 12 170 C12.92941406 169.72285156 13.85882813 169.44570312 14.81640625 169.16015625 C16.05261719 168.79792969 17.28882813 168.43570313 18.5625 168.0625 C19.78066406 167.70285156 20.99882812 167.34320313 22.25390625 166.97265625 C43.94426053 161.34085415 65.84002772 166.55650406 85.0625 177.1875 C106.71057847 190.44912448 123.45819473 209.07144678 136 231 C136.53923096 231.9269165 136.53923096 231.9269165 137.08935547 232.87255859 C157.4827877 268.23592026 164.4017436 309.40571889 154.05029297 349.0390625 C148.19183842 370.06901452 138.21566681 390.58332652 125 408 C126.175625 408.309375 126.175625 408.309375 127.375 408.625 C137.90901375 412.62066039 147.40142789 418.90250441 152.11328125 429.359375 C154.26099105 435.75519802 153.7255039 441.05975143 151 447.1875 C148.12604262 452.29056559 144.774107 455.65351986 140 459 C139.11570312 459.62390625 138.23140625 460.2478125 137.3203125 460.890625 C93.58733976 488.59180973 27.04740153 489.07214691 -23 488 C-23.97324219 487.98211426 -24.94648438 487.96422852 -25.94921875 487.94580078 C-143.01950996 485.57322239 -143.01950996 485.57322239 -176.1875 454.5625 C-180.84580594 449.44715272 -184.04186303 444.01088395 -184.5 437 C-183.93288157 428.32136947 -179.20616479 422.65539541 -173.21875 416.75 C-171.04521273 415.03566075 -169.70421655 414.39334059 -167 414 C-167.66644531 413.13761719 -168.33289063 412.27523438 -169.01953125 411.38671875 C-187.31812308 387.32267942 -199.12206966 360.87732333 -204 331 C-204.1340625 330.20207031 -204.268125 329.40414063 -204.40625 328.58203125 C-209.69506969 290.60536761 -194.53760923 248.94938057 -172.22802734 218.66894531 C-166.92035445 211.72570722 -161.01919163 205.32238055 -155 199 C-154.28457031 198.22011719 -153.56914062 197.44023437 -152.83203125 196.63671875 C-134.19692271 176.9527298 -108.23740404 164.81659959 -81.16064453 164.00048828 C-73.69311605 163.9988007 -66.34095297 165.14779349 -59.27514648 167.54785156 C-58.47229721 167.81938049 -57.66944794 168.09090942 -56.8422699 168.3706665 C-56.23432083 168.57834656 -55.62637177 168.78602661 -55 169 C-54.99641747 167.84512384 -54.99641747 167.84512384 -54.99276257 166.66691685 C-54.93356368 147.91200226 -54.85798232 129.15721872 -54.76428509 110.40244389 C-54.71936622 101.33267951 -54.67994256 92.26295405 -54.65356445 83.19311523 C-54.63055269 75.28559383 -54.59711922 67.37819601 -54.55129844 59.47077268 C-54.52740901 55.28588158 -54.50865224 51.10111254 -54.50238609 46.91615486 C-54.4963158 42.97215629 -54.47624626 39.02846987 -54.44572449 35.0845871 C-54.4369753 33.64192565 -54.43321518 32.19922336 -54.43499184 30.75653648 C-54.44358037 20.55882065 -54.11187473 11.36524094 -46.87890625 3.5703125 C-35.10509905 -6.2697509 -13.13023711 -7.92019641 0 0 Z " fill="#F11818" transform="translate(279,14)"/>
<path d="M0 0 C5.2408382 3.90590771 8.93037572 8.75383518 11 15 C11.59572078 20.039561 11.56510232 25.06924673 11.54589844 30.13671875 C11.55464311 31.6649836 11.565132 33.1932393 11.57722473 34.72148132 C11.60499617 38.85111458 11.60849139 42.98044777 11.60750484 47.11016083 C11.61064159 51.43304604 11.63627563 55.75579763 11.65948486 60.07861328 C11.69999015 68.25589197 11.72037268 76.43309103 11.73345876 84.61045456 C11.74934737 93.92371435 11.78777082 103.23683897 11.82805204 112.55002022 C11.91037608 131.6999707 11.96451498 150.84990831 12 170 C12.92941406 169.72285156 13.85882813 169.44570312 14.81640625 169.16015625 C16.05261719 168.79792969 17.28882813 168.43570313 18.5625 168.0625 C19.78066406 167.70285156 20.99882812 167.34320313 22.25390625 166.97265625 C43.94426053 161.34085415 65.84002772 166.55650406 85.0625 177.1875 C106.71057847 190.44912448 123.45819473 209.07144678 136 231 C136.53923096 231.9269165 136.53923096 231.9269165 137.08935547 232.87255859 C157.4827877 268.23592026 164.4017436 309.40571889 154.05029297 349.0390625 C148.19183842 370.06901452 138.21566681 390.58332652 125 408 C126.175625 408.309375 126.175625 408.309375 127.375 408.625 C137.90901375 412.62066039 147.40142789 418.90250441 152.11328125 429.359375 C154.26099105 435.75519802 153.7255039 441.05975143 151 447.1875 C148.12604262 452.29056559 144.774107 455.65351986 140 459 C139.11570312 459.62390625 138.23140625 460.2478125 137.3203125 460.890625 C93.58733976 488.59180973 27.04740153 489.07214691 -23 488 C-23.97324219 487.98211426 -24.94648438 487.96422852 -25.94921875 487.94580078 C-143.01950996 485.57322239 -143.01950996 485.57322239 -176.1875 454.5625 C-180.84580594 449.44715272 -184.04186303 444.01088395 -184.5 437 C-183.93288157 428.32136947 -179.20616479 422.65539541 -173.21875 416.75 C-171.04521273 415.03566075 -169.70421655 414.39334059 -167 414 C-167.66644531 413.13761719 -168.33289063 412.27523438 -169.01953125 411.38671875 C-187.31812308 387.32267942 -199.12206966 360.87732333 -204 331 C-204.1340625 330.20207031 -204.268125 329.40414063 -204.40625 328.58203125 C-209.69506969 290.60536761 -194.53760923 248.94938057 -172.22802734 218.66894531 C-166.92035445 211.72570722 -161.01919163 205.32238055 -155 199 C-154.28457031 198.22011719 -153.56914062 197.44023437 -152.83203125 196.63671875 C-134.19692271 176.9527298 -108.23740404 164.81659959 -81.16064453 164.00048828 C-73.69311605 163.9988007 -66.34095297 165.14779349 -59.27514648 167.54785156 C-58.47229721 167.81938049 -57.66944794 168.09090942 -56.8422699 168.3706665 C-56.23432083 168.57834656 -55.62637177 168.78602661 -55 169 C-54.99641747 167.84512384 -54.99641747 167.84512384 -54.99276257 166.66691685 C-54.93356368 147.91200226 -54.85798232 129.15721872 -54.76428509 110.40244389 C-54.71936622 101.33267951 -54.67994256 92.26295405 -54.65356445 83.19311523 C-54.63055269 75.28559383 -54.59711922 67.37819601 -54.55129844 59.47077268 C-54.52740901 55.28588158 -54.50865224 51.10111254 -54.50238609 46.91615486 C-54.4963158 42.97215629 -54.47624626 39.02846987 -54.44572449 35.0845871 C-54.4369753 33.64192565 -54.43321518 32.19922336 -54.43499184 30.75653648 C-54.44358037 20.55882065 -54.11187473 11.36524094 -46.87890625 3.5703125 C-35.10509905 -6.2697509 -13.13023711 -7.92019641 0 0 Z M-152.6484375 222.08203125 C-176.72223539 252.26920683 -190.13063998 287.69471641 -186.640625 326.55078125 C-183.32200941 355.33296847 -170.34140362 382.84394712 -152 405 C-151.2059375 405.96550781 -150.411875 406.93101562 -149.59375 407.92578125 C-137.42619428 422.04271649 -119.04462591 435.43134077 -99.92553711 437.19091797 C-97.82163969 437.26670286 -95.73003718 437.27330299 -93.625 437.25 C-92.9340625 437.25773437 -92.243125 437.26546875 -91.53125 437.2734375 C-80.90380913 437.23422185 -70.72460654 433.94326626 -60.56640625 431.12304688 C-49.42864356 428.12556846 -38.59226532 427.78905124 -27.1159668 427.75976562 C-24.83409712 427.75009156 -22.55314283 427.71898812 -20.27148438 427.6875 C-7.27116665 427.59157778 4.43960977 429.67458476 16.83789062 433.75415039 C36.85255006 440.30967155 53.72295236 439.60052895 73 431 C104.57085129 413.91509937 123.59797378 381.95113867 135 349 C135.30679687 348.15566406 135.61359375 347.31132812 135.9296875 346.44140625 C146.67086198 314.49471722 140.57373151 279.64318899 126.0234375 250.02978516 C110.49991181 219.24195296 87.732088 194.42875773 54.6171875 183.19140625 C41.53970865 179.58639782 29.82073929 182.2612187 17.421875 186.53515625 C12.03213066 188.38028362 6.65838073 189.3947866 1 190 C-0.1597937 190.12592529 -0.1597937 190.12592529 -1.34301758 190.25439453 C-24.42915376 192.58153368 -44.99399726 190.60724108 -66.91796875 183.3046875 C-100.20536599 172.43456991 -132.38385645 198.06673856 -152.6484375 222.08203125 Z " fill="#010000" transform="translate(279,14)"/>
<path d="M0 0 C8.24464477 2.29768789 18.56930383 6.15091904 23 14 C23.42668535 16.8890154 23.44938044 18.32888579 21.8125 20.7734375 C6.07241667 34.68170078 -18.92016904 39.1481459 -39 43 C-39.85996582 43.16741699 -40.71993164 43.33483398 -41.60595703 43.50732422 C-87.06134272 52.1288711 -135.06341965 52.46304924 -181 48 C-182.57998779 47.85522217 -182.57998779 47.85522217 -184.19189453 47.70751953 C-254.27561964 41.10362218 -254.27561964 41.10362218 -277 20 C-278.1875 17 -278.1875 17 -278 14 C-274.93906624 10.10426613 -271.14924331 7.60533882 -267 5 C-263.50640965 6.529452 -260.98952335 8.62616048 -258.125 11.125 C-240.23164754 25.96455364 -219.27179901 33.87987095 -196 32 C-189.48972287 31.03111578 -183.15636847 29.28367443 -176.8125 27.5625 C-174.38472542 26.92506673 -171.95537396 26.29423687 -169.52482605 25.66746521 C-168.03465645 25.28102902 -166.54627216 24.88760477 -165.06025696 24.48548889 C-140.82464544 18.05522187 -115.46344002 21.91937831 -92.10253906 29.57446289 C-86.36702586 31.42891872 -81.01512287 32.62044492 -75 33 C-74.31325195 33.05478516 -73.62650391 33.10957031 -72.91894531 33.16601562 C-48.13488162 34.8752614 -26.7720406 23.47765111 -8.46875 7.67822266 C-5.60222686 5.16534935 -2.78502193 2.60270672 0 0 Z " fill="#DC1818" transform="translate(391,435)"/>
<path d="M0 0 C0.75990234 -0.020625 1.51980469 -0.04125 2.30273438 -0.0625 C6.90579164 -0.09449345 10.00505739 0.1824493 13.6875 3.25 C15.92337068 6.67983344 15.93454292 9.57747573 15.92800903 13.61541748 C15.93075836 14.92511002 15.93350769 16.23480255 15.93634033 17.58418274 C15.92926243 19.03366181 15.92199282 20.48313995 15.91455078 21.93261719 C15.91398658 23.4602813 15.9143034 24.98794595 15.91543579 26.51560974 C15.91600997 30.66198233 15.90424516 34.80823936 15.89028788 38.95458508 C15.87779134 43.28809716 15.87661087 47.62161184 15.87423706 51.95513916 C15.86801913 60.16091114 15.85160406 68.36662987 15.83153808 76.5723784 C15.80918884 85.91448666 15.7981881 95.25659746 15.78814721 104.5987258 C15.76723811 123.81584739 15.73205603 143.03291942 15.6875 162.25 C12.81588146 163.20720618 10.99380708 163.3787398 8.01171875 163.3828125 C7.10099609 163.38410156 6.19027344 163.38539063 5.25195312 163.38671875 C4.30255859 163.38285156 3.35316406 163.37898437 2.375 163.375 C1.43720703 163.37886719 0.49941406 163.38273438 -0.46679688 163.38671875 C-1.38138672 163.38542969 -2.29597656 163.38414062 -3.23828125 163.3828125 C-4.06755127 163.38168457 -4.89682129 163.38055664 -5.7512207 163.37939453 C-8.66021663 163.23243353 -11.44456254 162.74676584 -14.3125 162.25 C-14.40592076 141.9965217 -14.47646813 121.7430871 -14.51974869 101.48943806 C-14.54037831 92.08541476 -14.56850654 82.68152529 -14.61425781 73.27758789 C-14.65411335 65.08158552 -14.67992991 56.88568007 -14.68885398 48.68958348 C-14.69407092 44.34933837 -14.7063408 40.00937054 -14.73542023 35.66921425 C-14.76256915 31.58409407 -14.77094613 27.49936542 -14.76493073 23.41416359 C-14.76603121 21.9149513 -14.77398849 20.41572592 -14.7893219 18.91659164 C-14.80923747 16.86903609 -14.80205115 14.82127049 -14.79351807 12.77363586 C-14.79720524 11.62784719 -14.80089241 10.48205851 -14.80469131 9.30154896 C-14.20454236 5.58067079 -12.91385417 3.92565506 -10.3125 1.25 C-7.0732886 -0.3696057 -3.55545619 0.02376245 0 0 Z " fill="#BE8051" transform="translate(257.3125,26.75)"/>
</svg>
